<svg xmlns="http://www.w3.org/2000/svg" xmlns:xlink="http://www.w3.org/1999/xlink" width="40" zoomAndPan="magnify" viewBox="0 0 30 30.000001" height="40" preserveAspectRatio="xMidYMid meet" version="1.2"><defs><clipPath id="7c989f1b3d"><path d="M 0.484375 0 L 29.515625 0 L 29.515625 29.03125 L 0.484375 29.03125 Z M 0.484375 0 "/></clipPath><clipPath id="cdf4c6d3d6"><path d="M 1.597656 14 L 14 14 L 14 18 L 1.597656 18 Z M 1.597656 14 "/></clipPath><clipPath id="5e276f6bfe"><path d="M 27 11 L 28.453125 11 L 28.453125 13 L 27 13 Z M 27 11 "/></clipPath><clipPath id="303a78a7d8"><path d="M 27 14 L 28.453125 14 L 28.453125 16 L 27 16 Z M 27 14 "/></clipPath><clipPath id="8a6c9f3cac"><path d="M 12 24 L 24 24 L 24 27.484375 L 12 27.484375 Z M 12 24 "/></clipPath><clipPath id="98e18a2b83"><path d="M 1.597656 11 L 10 11 L 10 15 L 1.597656 15 Z M 1.597656 11 "/></clipPath><clipPath id="81797e7fc9"><path d="M 16 1.355469 L 18 1.355469 L 18 2 L 16 2 Z M 16 1.355469 "/></clipPath><clipPath id="4cc85833a5"><path d="M 14 1.355469 L 16 1.355469 L 16 2 L 14 2 Z M 14 1.355469 "/></clipPath><clipPath id="b20d016d5e"><path d="M 11 1.355469 L 14 1.355469 L 14 3 L 11 3 Z M 11 1.355469 "/></clipPath></defs><g id="88be11011c"><g clip-rule="nonzero" clip-path="url(#7c989f1b3d)"><path style=" stroke:none;fill-rule:nonzero;fill:#ffffff;fill-opacity:1;" d="M 0.484375 0 L 29.515625 0 L 29.515625 29.03125 L 0.484375 29.03125 Z M 0.484375 0 "/><path style=" stroke:none;fill-rule:nonzero;fill:#ffffff;fill-opacity:1;" d="M 0.484375 0 L 29.515625 0 L 29.515625 29.03125 L 0.484375 29.03125 Z M 0.484375 0 "/></g><g clip-rule="nonzero" clip-path="url(#cdf4c6d3d6)"><path style=" stroke:none;fill-rule:nonzero;fill:#083459;fill-opacity:1;" d="M 13.503906 15.824219 C 13.390625 15.160156 12.753906 14.714844 12.082031 14.828125 C 7.570312 15.597656 3.738281 15.308594 1.605469 15.011719 C 1.636719 15.613281 1.710938 16.203125 1.824219 16.78125 C 1.902344 17.175781 2.234375 17.472656 2.640625 17.511719 C 3.875 17.625 5.601562 17.742188 6.457031 17.753906 C 8.101562 17.769531 10.109375 17.640625 12.5 17.234375 C 13.167969 17.117188 13.621094 16.488281 13.503906 15.824219 Z M 12.269531 16.792969 C 11.828125 16.785156 11.472656 16.429688 11.476562 15.988281 C 11.484375 15.550781 11.84375 15.199219 12.289062 15.203125 C 12.730469 15.207031 13.085938 15.570312 13.082031 16.007812 C 13.074219 16.445312 12.710938 16.796875 12.269531 16.792969 Z M 12.269531 16.792969 "/></g><path style=" stroke:none;fill-rule:nonzero;fill:#31d8ff;fill-opacity:1;" d="M 26.363281 9.882812 C 26.363281 9.996094 26.320312 10.09375 26.238281 10.171875 C 26.160156 10.253906 26.058594 10.292969 25.945312 10.292969 C 25.828125 10.292969 25.730469 10.253906 25.648438 10.171875 C 25.570312 10.09375 25.527344 9.996094 25.527344 9.882812 C 25.527344 9.765625 25.570312 9.667969 25.648438 9.589844 C 25.730469 9.507812 25.828125 9.46875 25.945312 9.46875 C 26.058594 9.46875 26.160156 9.507812 26.238281 9.589844 C 26.320312 9.667969 26.363281 9.765625 26.363281 9.882812 Z M 26.363281 9.882812 "/><g clip-rule="nonzero" clip-path="url(#5e276f6bfe)"><path style=" stroke:none;fill-rule:nonzero;fill:#31d8ff;fill-opacity:1;" d="M 28.203125 11.910156 C 28.203125 12.035156 28.15625 12.140625 28.070312 12.226562 C 27.984375 12.3125 27.878906 12.355469 27.753906 12.355469 C 27.628906 12.355469 27.523438 12.3125 27.4375 12.226562 C 27.351562 12.140625 27.304688 12.035156 27.304688 11.910156 C 27.304688 11.789062 27.351562 11.683594 27.4375 11.597656 C 27.523438 11.511719 27.628906 11.46875 27.753906 11.46875 C 27.878906 11.46875 27.984375 11.511719 28.070312 11.597656 C 28.15625 11.683594 28.203125 11.789062 28.203125 11.910156 Z M 28.203125 11.910156 "/></g><path style=" stroke:none;fill-rule:nonzero;fill:#31d8ff;fill-opacity:1;" d="M 27.453125 8.847656 C 27.453125 8.945312 27.421875 9.027344 27.351562 9.09375 C 27.28125 9.164062 27.199219 9.195312 27.105469 9.195312 C 27.007812 9.195312 26.925781 9.164062 26.855469 9.09375 C 26.789062 9.027344 26.753906 8.945312 26.753906 8.847656 C 26.753906 8.753906 26.789062 8.671875 26.855469 8.601562 C 26.925781 8.535156 27.007812 8.5 27.105469 8.5 C 27.199219 8.5 27.28125 8.535156 27.351562 8.601562 C 27.421875 8.671875 27.453125 8.753906 27.453125 8.847656 Z M 27.453125 8.847656 "/><path style=" stroke:none;fill-rule:nonzero;fill:#31d8ff;fill-opacity:1;" d="M 24.378906 10.503906 C 24.546875 10.53125 24.679688 10.613281 24.78125 10.75 C 24.882812 10.886719 24.917969 11.039062 24.890625 11.207031 C 24.863281 11.375 24.78125 11.507812 24.640625 11.605469 C 24.503906 11.703125 24.347656 11.742188 24.179688 11.714844 C 24.011719 11.6875 23.875 11.605469 23.777344 11.46875 C 23.675781 11.328125 23.640625 11.175781 23.667969 11.007812 C 23.695312 10.84375 23.777344 10.710938 23.917969 10.609375 C 24.054688 10.511719 24.210938 10.476562 24.378906 10.503906 Z M 24.378906 10.503906 "/><path style=" stroke:none;fill-rule:nonzero;fill:#0ca6e2;fill-opacity:1;" d="M 22.796875 12.683594 C 22.796875 12.898438 22.71875 13.078125 22.566406 13.230469 C 22.417969 13.378906 22.230469 13.457031 22.015625 13.457031 C 21.800781 13.457031 21.617188 13.378906 21.464844 13.230469 C 21.3125 13.078125 21.238281 12.898438 21.238281 12.683594 C 21.238281 12.472656 21.3125 12.289062 21.464844 12.136719 C 21.617188 11.988281 21.800781 11.910156 22.015625 11.910156 C 22.230469 11.910156 22.417969 11.988281 22.566406 12.136719 C 22.71875 12.289062 22.796875 12.472656 22.796875 12.683594 Z M 22.796875 12.683594 "/><g clip-rule="nonzero" clip-path="url(#303a78a7d8)"><path style=" stroke:none;fill-rule:nonzero;fill:#1174a5;fill-opacity:1;" d="M 28.445312 14.730469 C 28.445312 14.851562 28.402344 14.953125 28.316406 15.039062 C 28.230469 15.125 28.128906 15.167969 28.007812 15.167969 C 27.886719 15.167969 27.78125 15.125 27.695312 15.039062 C 27.609375 14.953125 27.566406 14.851562 27.566406 14.730469 C 27.566406 14.613281 27.609375 14.507812 27.695312 14.425781 C 27.78125 14.339844 27.886719 14.296875 28.007812 14.296875 C 28.128906 14.296875 28.230469 14.339844 28.316406 14.425781 C 28.402344 14.507812 28.445312 14.613281 28.445312 14.730469 Z M 28.445312 14.730469 "/></g><path style=" stroke:none;fill-rule:nonzero;fill:#1174a5;fill-opacity:1;" d="M 20.015625 13.960938 C 20.015625 14.21875 19.925781 14.4375 19.742188 14.621094 C 19.554688 14.804688 19.332031 14.898438 19.070312 14.898438 C 18.8125 14.898438 18.589844 14.804688 18.402344 14.621094 C 18.21875 14.4375 18.125 14.21875 18.125 13.960938 C 18.125 13.703125 18.21875 13.480469 18.402344 13.296875 C 18.589844 13.113281 18.8125 13.023438 19.070312 13.023438 C 19.332031 13.023438 19.554688 13.113281 19.742188 13.296875 C 19.925781 13.480469 20.015625 13.703125 20.015625 13.960938 Z M 20.015625 13.960938 "/><path style=" stroke:none;fill-rule:nonzero;fill:#083459;fill-opacity:1;" d="M 15.773438 14.375 C 15.902344 14.402344 16.023438 14.449219 16.132812 14.519531 C 16.242188 14.59375 16.332031 14.683594 16.40625 14.789062 C 16.480469 14.898438 16.53125 15.015625 16.558594 15.140625 C 16.582031 15.269531 16.585938 15.398438 16.558594 15.523438 C 16.535156 15.652344 16.484375 15.769531 16.414062 15.878906 C 16.339844 15.988281 16.25 16.078125 16.144531 16.152344 C 16.035156 16.222656 15.914062 16.273438 15.785156 16.300781 C 15.660156 16.328125 15.53125 16.328125 15.402344 16.300781 C 15.273438 16.277344 15.152344 16.230469 15.042969 16.160156 C 14.933594 16.085938 14.84375 15.996094 14.769531 15.890625 C 14.695312 15.78125 14.644531 15.664062 14.617188 15.535156 C 14.59375 15.410156 14.589844 15.28125 14.617188 15.152344 C 14.640625 15.027344 14.691406 14.910156 14.761719 14.800781 C 14.832031 14.691406 14.925781 14.601562 15.03125 14.527344 C 15.140625 14.453125 15.261719 14.40625 15.390625 14.378906 C 15.515625 14.351562 15.644531 14.351562 15.773438 14.375 Z M 15.773438 14.375 "/><path style=" stroke:none;fill-rule:nonzero;fill:#083459;fill-opacity:1;" d="M 19.136719 18.136719 C 18.96875 17.375 18.152344 16.9375 17.402344 17.1875 C 8.617188 20.097656 2.335938 18.28125 2.335938 18.28125 C 2.335938 18.28125 2.320312 18.308594 2.292969 18.351562 C 2.527344 19.097656 2.828125 19.8125 3.1875 20.496094 C 3.398438 20.894531 3.78125 21.175781 4.230469 21.246094 C 4.230469 21.246094 4.234375 21.25 4.238281 21.25 C 5.117188 21.390625 11.011719 21.855469 18.152344 19.6875 C 18.84375 19.480469 19.289062 18.832031 19.136719 18.136719 Z M 17.875 19.230469 C 17.402344 19.257812 16.996094 18.898438 16.972656 18.425781 C 16.945312 17.957031 17.308594 17.554688 17.78125 17.527344 C 18.257812 17.503906 18.664062 17.863281 18.6875 18.332031 C 18.714844 18.804688 18.351562 19.207031 17.875 19.230469 Z M 17.875 19.230469 "/><path style=" stroke:none;fill-rule:nonzero;fill:#0ca6e2;fill-opacity:1;" d="M 26.273438 13.992188 C 25.863281 14.082031 25.492188 13.75 25.535156 13.335938 C 25.5625 13.085938 25.753906 12.875 26.003906 12.820312 C 26.414062 12.730469 26.785156 13.0625 26.738281 13.476562 C 26.710938 13.726562 26.519531 13.9375 26.273438 13.992188 Z M 26.273438 13.992188 "/><path style=" stroke:none;fill-rule:nonzero;fill:#1174a5;fill-opacity:1;" d="M 25.003906 15.058594 C 25.015625 15.300781 24.941406 15.515625 24.773438 15.699219 C 24.609375 15.882812 24.402344 15.980469 24.152344 15.996094 C 23.90625 16.007812 23.691406 15.933594 23.503906 15.769531 C 23.320312 15.605469 23.222656 15.398438 23.207031 15.152344 C 23.195312 14.910156 23.269531 14.695312 23.4375 14.511719 C 23.601562 14.328125 23.808594 14.230469 24.054688 14.214844 C 24.304688 14.203125 24.519531 14.277344 24.703125 14.441406 C 24.890625 14.605469 24.988281 14.8125 25.003906 15.058594 Z M 25.003906 15.058594 "/><path style=" stroke:none;fill-rule:nonzero;fill:#083459;fill-opacity:1;" d="M 21.351562 15.683594 C 21.496094 15.703125 21.632812 15.75 21.757812 15.820312 C 21.882812 15.894531 21.988281 15.988281 22.078125 16.101562 C 22.164062 16.21875 22.226562 16.34375 22.265625 16.484375 C 22.300781 16.625 22.3125 16.765625 22.292969 16.90625 C 22.273438 17.050781 22.226562 17.183594 22.152344 17.308594 C 22.078125 17.433594 21.984375 17.539062 21.867188 17.628906 C 21.75 17.714844 21.625 17.777344 21.484375 17.8125 C 21.34375 17.847656 21.199219 17.859375 21.054688 17.839844 C 20.910156 17.820312 20.777344 17.773438 20.652344 17.699219 C 20.523438 17.628906 20.417969 17.535156 20.328125 17.417969 C 20.242188 17.304688 20.179688 17.175781 20.140625 17.039062 C 20.105469 16.898438 20.097656 16.757812 20.117188 16.613281 C 20.136719 16.472656 20.183594 16.335938 20.253906 16.210938 C 20.328125 16.089844 20.421875 15.980469 20.539062 15.894531 C 20.65625 15.808594 20.785156 15.746094 20.925781 15.707031 C 21.066406 15.671875 21.207031 15.664062 21.351562 15.683594 Z M 21.351562 15.683594 "/><path style=" stroke:none;fill-rule:nonzero;fill:#083459;fill-opacity:1;" d="M 24.433594 19.015625 C 24.109375 18.300781 23.222656 18.058594 22.535156 18.445312 C 15.414062 22.4375 7.84375 22.402344 4.136719 22.019531 C 4.546875 22.589844 5.003906 23.128906 5.5 23.625 C 5.972656 24.101562 6.605469 24.386719 7.28125 24.4375 C 10.8125 24.691406 17.210938 24.410156 23.800781 20.734375 C 24.429688 20.386719 24.730469 19.660156 24.433594 19.015625 Z M 23.433594 20.34375 C 22.976562 20.46875 22.503906 20.199219 22.378906 19.746094 C 22.253906 19.292969 22.523438 18.824219 22.980469 18.699219 C 23.441406 18.574219 23.914062 18.84375 24.039062 19.296875 C 24.164062 19.753906 23.890625 20.222656 23.433594 20.34375 Z M 23.433594 20.34375 "/><path style=" stroke:none;fill-rule:nonzero;fill:#083459;fill-opacity:1;" d="M 26.777344 18.058594 C 26.230469 18.265625 25.636719 17.925781 25.539062 17.355469 C 25.464844 16.933594 25.710938 16.507812 26.113281 16.355469 C 26.660156 16.148438 27.257812 16.488281 27.355469 17.058594 C 27.425781 17.480469 27.183594 17.90625 26.777344 18.058594 Z M 26.777344 18.058594 "/><path style=" stroke:none;fill-rule:nonzero;fill:#083459;fill-opacity:1;" d="M 27.105469 19.128906 C 26.421875 20.785156 25.410156 22.269531 24.144531 23.503906 C 19.554688 26.226562 14.734375 26.824219 11.679688 26.878906 C 10.1875 26.511719 8.796875 25.890625 7.554688 25.066406 C 9.4375 25.261719 17.804688 25.785156 25.109375 20.699219 C 25.75 20.253906 26.582031 19.335938 27.105469 19.128906 Z M 27.105469 19.128906 "/><g clip-rule="nonzero" clip-path="url(#8a6c9f3cac)"><path style=" stroke:none;fill-rule:nonzero;fill:#083459;fill-opacity:1;" d="M 23.277344 24.609375 C 21.957031 26.113281 18 28.246094 12.816406 27.210938 C 15.242188 27.410156 19.929688 26.445312 23.277344 24.609375 Z M 23.277344 24.609375 "/></g><g clip-rule="nonzero" clip-path="url(#98e18a2b83)"><path style=" stroke:none;fill-rule:nonzero;fill:#083459;fill-opacity:1;" d="M 9.414062 12.671875 C 9.359375 12 8.765625 11.503906 8.085938 11.558594 C 5.585938 11.769531 3.574219 11.695312 2.019531 11.515625 C 1.875 12.136719 1.777344 12.777344 1.726562 13.429688 C 1.707031 13.710938 1.914062 13.960938 2.199219 13.988281 C 2.207031 13.988281 2.21875 13.992188 2.226562 13.992188 C 3.863281 14.148438 5.878906 14.191406 8.292969 13.988281 C 8.96875 13.933594 9.472656 13.34375 9.414062 12.671875 Z M 8.976562 12.816406 C 8.933594 13.253906 8.542969 13.574219 8.101562 13.53125 C 7.664062 13.488281 7.339844 13.101562 7.382812 12.664062 C 7.425781 12.226562 7.816406 11.90625 8.257812 11.949219 C 8.699219 11.992188 9.019531 12.378906 8.976562 12.816406 Z M 8.976562 12.816406 "/></g><path style=" stroke:none;fill-rule:nonzero;fill:#31d8ff;fill-opacity:1;" d="M 22.117188 8.058594 C 22.242188 8.070312 22.339844 8.125 22.421875 8.21875 C 22.5 8.3125 22.53125 8.421875 22.519531 8.542969 C 22.507812 8.667969 22.453125 8.765625 22.359375 8.84375 C 22.261719 8.921875 22.15625 8.957031 22.03125 8.941406 C 21.90625 8.929688 21.808594 8.878906 21.730469 8.785156 C 21.648438 8.6875 21.617188 8.582031 21.628906 8.457031 C 21.640625 8.335938 21.695312 8.238281 21.789062 8.160156 C 21.886719 8.082031 21.996094 8.046875 22.117188 8.058594 Z M 22.117188 8.058594 "/><path style=" stroke:none;fill-rule:nonzero;fill:#31d8ff;fill-opacity:1;" d="M 20.039062 9.140625 C 20.1875 9.179688 20.300781 9.265625 20.378906 9.398438 C 20.457031 9.535156 20.476562 9.675781 20.4375 9.824219 C 20.398438 9.972656 20.3125 10.085938 20.175781 10.164062 C 20.042969 10.242188 19.902344 10.261719 19.75 10.222656 C 19.601562 10.183594 19.484375 10.097656 19.40625 9.960938 C 19.328125 9.828125 19.308594 9.6875 19.347656 9.539062 C 19.386719 9.390625 19.476562 9.277344 19.609375 9.199219 C 19.746094 9.121094 19.886719 9.101562 20.039062 9.140625 Z M 20.039062 9.140625 "/><path style=" stroke:none;fill-rule:nonzero;fill:#0ca6e2;fill-opacity:1;" d="M 17.195312 10.214844 C 17.378906 10.234375 17.527344 10.3125 17.644531 10.453125 C 17.761719 10.59375 17.8125 10.757812 17.792969 10.9375 C 17.777344 11.121094 17.695312 11.269531 17.554688 11.386719 C 17.414062 11.5 17.25 11.550781 17.066406 11.535156 C 16.882812 11.515625 16.730469 11.4375 16.613281 11.296875 C 16.496094 11.152344 16.449219 10.992188 16.464844 10.8125 C 16.484375 10.628906 16.5625 10.480469 16.707031 10.363281 C 16.847656 10.246094 17.011719 10.199219 17.195312 10.214844 Z M 17.195312 10.214844 "/><path style=" stroke:none;fill-rule:nonzero;fill:#1174a5;fill-opacity:1;" d="M 14.292969 11.058594 C 14.519531 11.082031 14.703125 11.179688 14.847656 11.351562 C 14.992188 11.527344 15.054688 11.726562 15.03125 11.949219 C 15.007812 12.171875 14.910156 12.355469 14.734375 12.5 C 14.558594 12.640625 14.359375 12.703125 14.132812 12.679688 C 13.910156 12.660156 13.722656 12.5625 13.578125 12.386719 C 13.433594 12.214844 13.375 12.015625 13.394531 11.792969 C 13.417969 11.566406 13.515625 11.382812 13.691406 11.242188 C 13.867188 11.097656 14.066406 11.039062 14.292969 11.058594 Z M 14.292969 11.058594 "/><path style=" stroke:none;fill-rule:nonzero;fill:#083459;fill-opacity:1;" d="M 11.554688 11.542969 C 11.679688 11.578125 11.792969 11.636719 11.894531 11.71875 C 11.996094 11.800781 12.078125 11.898438 12.140625 12.011719 C 12.203125 12.125 12.238281 12.246094 12.253906 12.375 C 12.265625 12.503906 12.253906 12.628906 12.21875 12.753906 C 12.179688 12.875 12.121094 12.988281 12.039062 13.089844 C 11.957031 13.191406 11.859375 13.269531 11.746094 13.332031 C 11.628906 13.394531 11.507812 13.433594 11.378906 13.445312 C 11.25 13.460938 11.121094 13.449219 10.996094 13.410156 C 10.871094 13.375 10.757812 13.316406 10.65625 13.234375 C 10.554688 13.152344 10.472656 13.054688 10.410156 12.941406 C 10.347656 12.828125 10.308594 12.707031 10.296875 12.578125 C 10.28125 12.449219 10.292969 12.324219 10.332031 12.199219 C 10.367188 12.078125 10.425781 11.964844 10.507812 11.863281 C 10.589844 11.761719 10.691406 11.683594 10.804688 11.621094 C 10.917969 11.558594 11.042969 11.519531 11.171875 11.507812 C 11.300781 11.492188 11.429688 11.503906 11.554688 11.542969 Z M 11.554688 11.542969 "/><path style=" stroke:none;fill-rule:nonzero;fill:#083459;fill-opacity:1;" d="M 6.667969 8.214844 C 5.40625 8.273438 4.277344 8.265625 3.277344 8.207031 C 2.890625 8.910156 2.570312 9.652344 2.320312 10.429688 C 3.597656 10.539062 5.078125 10.578125 6.777344 10.5 C 7.414062 10.46875 7.90625 9.933594 7.875 9.304688 C 7.84375 8.671875 7.304688 8.1875 6.667969 8.214844 Z M 7.460938 9.421875 C 7.40625 9.832031 7.027344 10.117188 6.617188 10.0625 C 6.207031 10.007812 5.917969 9.632812 5.972656 9.226562 C 6.027344 8.820312 6.40625 8.53125 6.816406 8.585938 C 7.226562 8.640625 7.515625 9.015625 7.460938 9.421875 Z M 7.460938 9.421875 "/><path style=" stroke:none;fill-rule:nonzero;fill:#31d8ff;fill-opacity:1;" d="M 18.742188 6.503906 C 18.878906 6.546875 18.984375 6.632812 19.054688 6.757812 C 19.121094 6.886719 19.136719 7.019531 19.09375 7.15625 C 19.050781 7.296875 18.964844 7.398438 18.835938 7.46875 C 18.707031 7.535156 18.574219 7.546875 18.433594 7.507812 C 18.292969 7.464844 18.191406 7.378906 18.121094 7.253906 C 18.054688 7.125 18.039062 6.992188 18.082031 6.855469 C 18.125 6.714844 18.210938 6.613281 18.339844 6.542969 C 18.46875 6.476562 18.601562 6.460938 18.742188 6.503906 Z M 18.742188 6.503906 "/><path style=" stroke:none;fill-rule:nonzero;fill:#0ca6e2;fill-opacity:1;" d="M 15.578125 7.265625 C 15.75 7.289062 15.890625 7.367188 15.992188 7.503906 C 16.097656 7.640625 16.140625 7.792969 16.117188 7.964844 C 16.09375 8.132812 16.015625 8.269531 15.875 8.375 C 15.738281 8.476562 15.585938 8.519531 15.414062 8.496094 C 15.242188 8.472656 15.105469 8.394531 15 8.257812 C 14.894531 8.121094 14.855469 7.96875 14.875 7.800781 C 14.898438 7.628906 14.980469 7.492188 15.117188 7.386719 C 15.253906 7.285156 15.410156 7.242188 15.578125 7.265625 Z M 15.578125 7.265625 "/><path style=" stroke:none;fill-rule:nonzero;fill:#1174a5;fill-opacity:1;" d="M 12.609375 7.824219 C 12.820312 7.851562 12.992188 7.949219 13.121094 8.117188 C 13.25 8.285156 13.300781 8.472656 13.273438 8.679688 C 13.242188 8.890625 13.144531 9.058594 12.976562 9.1875 C 12.808594 9.3125 12.617188 9.363281 12.40625 9.335938 C 12.195312 9.308594 12.027344 9.210938 11.898438 9.042969 C 11.769531 8.875 11.71875 8.6875 11.746094 8.476562 C 11.773438 8.269531 11.871094 8.101562 12.042969 7.972656 C 12.210938 7.84375 12.398438 7.796875 12.609375 7.824219 Z M 12.609375 7.824219 "/><path style=" stroke:none;fill-rule:nonzero;fill:#083459;fill-opacity:1;" d="M 9.96875 8.410156 C 10.183594 8.484375 10.339844 8.621094 10.441406 8.820312 C 10.542969 9.019531 10.554688 9.226562 10.484375 9.441406 C 10.414062 9.652344 10.273438 9.8125 10.070312 9.910156 C 9.871094 10.011719 9.660156 10.023438 9.445312 9.953125 C 9.230469 9.882812 9.074219 9.746094 8.972656 9.546875 C 8.871094 9.34375 8.855469 9.136719 8.929688 8.925781 C 9 8.710938 9.136719 8.554688 9.339844 8.453125 C 9.542969 8.355469 9.753906 8.339844 9.96875 8.410156 Z M 9.96875 8.410156 "/><path style=" stroke:none;fill-rule:nonzero;fill:#083459;fill-opacity:1;" d="M 6.238281 5.535156 C 5.894531 5.53125 5.5625 5.519531 5.242188 5.507812 C 4.6875 6.09375 4.191406 6.730469 3.753906 7.40625 C 4.503906 7.476562 5.324219 7.523438 6.210938 7.535156 C 6.769531 7.542969 7.226562 7.101562 7.234375 6.550781 C 7.242188 5.996094 6.796875 5.542969 6.238281 5.535156 Z M 6.863281 6.632812 C 6.792969 6.984375 6.449219 7.214844 6.09375 7.144531 C 5.738281 7.074219 5.503906 6.734375 5.574219 6.382812 C 5.644531 6.027344 5.992188 5.800781 6.347656 5.867188 C 6.703125 5.9375 6.933594 6.28125 6.863281 6.632812 Z M 6.863281 6.632812 "/><path style=" stroke:none;fill-rule:nonzero;fill:#31d8ff;fill-opacity:1;" d="M 17.617188 4.367188 C 17.738281 4.414062 17.824219 4.492188 17.878906 4.605469 C 17.929688 4.722656 17.933594 4.839844 17.890625 4.957031 C 17.847656 5.078125 17.765625 5.160156 17.648438 5.214844 C 17.535156 5.265625 17.414062 5.273438 17.296875 5.226562 C 17.175781 5.183594 17.089844 5.105469 17.035156 4.988281 C 16.984375 4.875 16.980469 4.757812 17.023438 4.640625 C 17.066406 4.519531 17.148438 4.433594 17.265625 4.382812 C 17.378906 4.328125 17.5 4.324219 17.617188 4.367188 Z M 17.617188 4.367188 "/><path style=" stroke:none;fill-rule:nonzero;fill:#0ca6e2;fill-opacity:1;" d="M 14.867188 5.050781 C 15.015625 5.082031 15.132812 5.15625 15.214844 5.28125 C 15.300781 5.40625 15.328125 5.542969 15.296875 5.6875 C 15.269531 5.835938 15.191406 5.953125 15.066406 6.035156 C 14.941406 6.117188 14.804688 6.144531 14.65625 6.117188 C 14.507812 6.085938 14.390625 6.011719 14.308594 5.886719 C 14.222656 5.761719 14.195312 5.625 14.222656 5.480469 C 14.253906 5.332031 14.332031 5.21875 14.457031 5.132812 C 14.582031 5.050781 14.71875 5.023438 14.867188 5.050781 Z M 14.867188 5.050781 "/><path style=" stroke:none;fill-rule:nonzero;fill:#1174a5;fill-opacity:1;" d="M 12.28125 5.378906 C 12.460938 5.414062 12.605469 5.507812 12.707031 5.660156 C 12.8125 5.816406 12.847656 5.980469 12.808594 6.164062 C 12.773438 6.34375 12.679688 6.484375 12.523438 6.585938 C 12.371094 6.691406 12.203125 6.722656 12.019531 6.6875 C 11.835938 6.652344 11.695312 6.558594 11.589844 6.40625 C 11.488281 6.25 11.453125 6.085938 11.488281 5.902344 C 11.523438 5.722656 11.621094 5.582031 11.773438 5.480469 C 11.929688 5.375 12.097656 5.34375 12.28125 5.378906 Z M 12.28125 5.378906 "/><path style=" stroke:none;fill-rule:nonzero;fill:#083459;fill-opacity:1;" d="M 9.542969 5.605469 C 9.746094 5.683594 9.890625 5.824219 9.976562 6.027344 C 10.0625 6.226562 10.0625 6.425781 9.980469 6.628906 C 9.898438 6.828125 9.757812 6.972656 9.554688 7.054688 C 9.355469 7.140625 9.152344 7.144531 8.949219 7.0625 C 8.746094 6.980469 8.601562 6.839844 8.515625 6.640625 C 8.429688 6.4375 8.429688 6.238281 8.511719 6.039062 C 8.59375 5.835938 8.734375 5.691406 8.9375 5.609375 C 9.136719 5.523438 9.339844 5.523438 9.542969 5.605469 Z M 9.542969 5.605469 "/><path style=" stroke:none;fill-rule:nonzero;fill:#083459;fill-opacity:1;" d="M 7.550781 3.777344 C 7.519531 4.292969 7.070312 4.6875 6.546875 4.652344 C 6.417969 4.644531 6.285156 4.636719 6.15625 4.625 C 6.59375 4.242188 7.054688 3.890625 7.542969 3.566406 C 7.554688 3.632812 7.554688 3.707031 7.550781 3.777344 Z M 7.550781 3.777344 "/><path style=" stroke:none;fill-rule:nonzero;fill:#31d8ff;fill-opacity:1;" d="M 17.066406 2.726562 C 17.175781 2.773438 17.253906 2.851562 17.296875 2.960938 C 17.339844 3.070312 17.339844 3.179688 17.292969 3.289062 C 17.246094 3.398438 17.164062 3.472656 17.054688 3.519531 C 16.945312 3.5625 16.832031 3.558594 16.722656 3.511719 C 16.613281 3.464844 16.535156 3.386719 16.492188 3.277344 C 16.449219 3.167969 16.449219 3.058594 16.496094 2.949219 C 16.542969 2.839844 16.621094 2.765625 16.734375 2.71875 C 16.84375 2.675781 16.957031 2.679688 17.066406 2.726562 Z M 17.066406 2.726562 "/><path style=" stroke:none;fill-rule:nonzero;fill:#0ca6e2;fill-opacity:1;" d="M 14.542969 2.777344 C 14.679688 2.8125 14.785156 2.886719 14.859375 3.007812 C 14.929688 3.128906 14.949219 3.257812 14.917969 3.394531 C 14.882812 3.53125 14.804688 3.632812 14.683594 3.707031 C 14.5625 3.777344 14.433594 3.796875 14.292969 3.761719 C 14.15625 3.730469 14.050781 3.652344 13.980469 3.53125 C 13.90625 3.410156 13.886719 3.285156 13.921875 3.148438 C 13.957031 3.011719 14.035156 2.90625 14.15625 2.835938 C 14.277344 2.761719 14.40625 2.742188 14.542969 2.777344 Z M 14.542969 2.777344 "/><path style=" stroke:none;fill-rule:nonzero;fill:#1174a5;fill-opacity:1;" d="M 12.105469 2.960938 C 12.277344 3.003906 12.40625 3.097656 12.496094 3.246094 C 12.585938 3.394531 12.609375 3.550781 12.566406 3.71875 C 12.523438 3.886719 12.429688 4.015625 12.277344 4.105469 C 12.128906 4.191406 11.972656 4.214844 11.800781 4.175781 C 11.632812 4.132812 11.503906 4.039062 11.414062 3.890625 C 11.324219 3.742188 11.300781 3.585938 11.34375 3.417969 C 11.382812 3.25 11.480469 3.121094 11.628906 3.03125 C 11.777344 2.945312 11.9375 2.921875 12.105469 2.960938 Z M 12.105469 2.960938 "/><path style=" stroke:none;fill-rule:nonzero;fill:#083459;fill-opacity:1;" d="M 9.613281 3.421875 C 9.78125 3.5 9.898438 3.625 9.960938 3.800781 C 10.023438 3.972656 10.019531 4.140625 9.9375 4.308594 C 9.859375 4.476562 9.734375 4.589844 9.558594 4.652344 C 9.386719 4.71875 9.214844 4.710938 9.046875 4.632812 C 8.878906 4.554688 8.761719 4.429688 8.699219 4.257812 C 8.632812 4.082031 8.640625 3.914062 8.71875 3.746094 C 8.796875 3.578125 8.921875 3.464844 9.097656 3.402344 C 9.273438 3.339844 9.445312 3.34375 9.613281 3.421875 Z M 9.613281 3.421875 "/><g clip-rule="nonzero" clip-path="url(#81797e7fc9)"><path style=" stroke:none;fill-rule:nonzero;fill:#31d8ff;fill-opacity:1;" d="M 17.320312 1.578125 C 17.320312 1.589844 17.316406 1.601562 17.3125 1.613281 C 17.253906 1.84375 17.019531 1.984375 16.789062 1.925781 C 16.570312 1.871094 16.433594 1.664062 16.464844 1.449219 C 16.753906 1.484375 17.039062 1.527344 17.320312 1.578125 Z M 17.320312 1.578125 "/></g><g clip-rule="nonzero" clip-path="url(#4cc85833a5)"><path style=" stroke:none;fill-rule:nonzero;fill:#0ca6e2;fill-opacity:1;" d="M 15.429688 1.574219 C 15.359375 1.847656 15.082031 2.011719 14.808594 1.945312 C 14.542969 1.878906 14.378906 1.625 14.425781 1.363281 C 14.578125 1.359375 14.730469 1.355469 14.882812 1.355469 C 15.066406 1.355469 15.25 1.359375 15.4375 1.367188 C 15.449219 1.433594 15.445312 1.503906 15.429688 1.574219 Z M 15.429688 1.574219 "/></g><g clip-rule="nonzero" clip-path="url(#b20d016d5e)"><path style=" stroke:none;fill-rule:nonzero;fill:#1174a5;fill-opacity:1;" d="M 13.15625 1.769531 C 13.070312 2.101562 12.730469 2.308594 12.390625 2.222656 C 12.128906 2.160156 11.945312 1.941406 11.917969 1.6875 C 12.324219 1.597656 12.738281 1.523438 13.15625 1.46875 C 13.179688 1.5625 13.183594 1.667969 13.15625 1.769531 Z M 13.15625 1.769531 "/></g><path style=" stroke:none;fill-rule:nonzero;fill:#083459;fill-opacity:1;" d="M 10.589844 2.0625 C 10.585938 2.105469 10.582031 2.144531 10.570312 2.183594 C 10.480469 2.542969 10.117188 2.757812 9.753906 2.667969 C 9.640625 2.640625 9.539062 2.585938 9.457031 2.507812 C 9.828125 2.34375 10.203125 2.195312 10.589844 2.0625 Z M 10.589844 2.0625 "/></g></svg>